# Blender 3.1.2
# www.blender.org
mtllib slit.mtl
o Cube
v 0.100000 0.100000 0.100000
v 0.100000 -0.100000 0.100000
v -0.100000 0.100000 0.100000
v -0.100000 -0.100000 0.100000
v 0.004058 0.100000 0.100000
v -0.003945 0.100000 0.100000
v -0.003945 -0.100000 0.100000
v 0.004058 -0.100000 0.100000
v 0.100000 0.100000 -0.593907
v 0.100000 -0.100000 -0.593907
v -0.100000 0.100000 -0.593907
v -0.100000 -0.100000 -0.593907
v -0.100000 0.000000 0.100000
v -0.051972 0.100000 0.100000
v 0.052029 -0.100000 0.100000
v 0.100000 0.000000 0.100000
v 0.052029 0.100000 0.100000
v -0.051972 -0.100000 0.100000
v 0.004058 0.000000 0.100000
v -0.003945 0.000000 0.100000
v 0.000000 -0.100000 -0.593907
v 0.100000 0.000000 -0.593907
v -0.100000 0.000000 -0.593907
v 0.000000 0.100000 -0.593907
v -0.100000 -0.100000 -0.246954
v 0.100000 -0.100000 -0.246954
v -0.100000 0.100000 -0.246954
v 0.100000 0.100000 -0.246954
v 0.000000 0.000000 -0.593907
v 0.100000 0.000000 -0.246954
v 0.052029 0.000000 0.100000
v -0.051972 0.000000 0.100000
v -0.100000 0.000000 -0.246954
vn -1.0000 -0.0000 -0.0000
vn -0.0000 -0.0000 1.0000
vn 1.0000 -0.0000 -0.0000
vn -0.0000 -0.0000 -1.0000
vt 0.625000 0.750000
vt 0.375000 0.750000
vt 0.625000 0.000000
vt 0.625000 1.000000
vt 0.375000 1.000000
vt 0.375000 0.000000
vt 0.625000 0.863636
vt 0.625000 0.886364
vt 0.375000 0.886364
vt 0.375000 0.863636
vt 0.625000 0.500000
vt 0.375000 0.500000
vt 0.625000 0.250000
vt 0.375000 0.250000
vt 0.500000 1.000000
vt 0.500000 0.000000
vt 0.625000 0.943182
vt 0.375000 0.806818
vt 0.500000 0.750000
vt 0.625000 0.806818
vt 0.375000 0.943182
vt 0.500000 0.863636
vt 0.500000 0.886364
vt 0.375000 0.375000
vt 0.500000 0.500000
vt 0.500000 0.250000
vt 0.625000 0.375000
vt 0.375000 0.125000
vt 0.375000 0.625000
vt 0.625000 0.125000
vt 0.625000 0.625000
vt 0.500000 0.375000
vt 0.500000 0.625000
vt 0.500000 0.806818
vt 0.500000 0.943182
vt 0.500000 0.125000
s 0
usemtl Material
f 23/26/1 25/28/1 33/36/1
f 13/15/2 18/21/2 32/35/2
f 19/22/2 15/18/2 31/34/2
f 22/25/3 28/31/3 30/33/3
f 22/25/4 21/24/4 29/32/4
f 29/32/4 12/14/4 23/26/4
f 24/27/4 23/26/4 11/13/4
f 9/11/4 29/32/4 24/27/4
f 30/33/3 1/1/3 16/19/3
f 26/29/3 16/19/3 2/2/3
f 10/12/3 30/33/3 26/29/3
f 31/34/2 2/2/2 16/19/2
f 17/20/2 16/19/2 1/1/2
f 5/7/2 31/34/2 17/20/2
f 32/35/2 7/9/2 20/23/2
f 14/17/2 20/23/2 6/8/2
f 3/4/2 32/35/2 14/17/2
f 33/36/1 4/6/1 13/16/1
f 27/30/1 13/16/1 3/3/1
f 11/13/1 33/36/1 27/30/1
f 23/26/1 12/14/1 25/28/1
f 13/15/2 4/5/2 18/21/2
f 19/22/2 8/10/2 15/18/2
f 22/25/3 9/11/3 28/31/3
f 22/25/4 10/12/4 21/24/4
f 29/32/4 21/24/4 12/14/4
f 24/27/4 29/32/4 23/26/4
f 9/11/4 22/25/4 29/32/4
f 30/33/3 28/31/3 1/1/3
f 26/29/3 30/33/3 16/19/3
f 10/12/3 22/25/3 30/33/3
f 31/34/2 15/18/2 2/2/2
f 17/20/2 31/34/2 16/19/2
f 5/7/2 19/22/2 31/34/2
f 32/35/2 18/21/2 7/9/2
f 14/17/2 32/35/2 20/23/2
f 3/4/2 13/15/2 32/35/2
f 33/36/1 25/28/1 4/6/1
f 27/30/1 33/36/1 13/16/1
f 11/13/1 23/26/1 33/36/1
l 19 20
